<svg width="32" height="32" viewBox="0 0 32 32" fill="none" xmlns="http://www.w3.org/2000/svg">
  <rect width="32" height="32" rx="7" fill="#2563eb"/>
  <path d="M5 11.5A1.5 1.5 0 0 1 6.5 10h10.5a1 1 0 0 1 1 1v8.5H6.5A1.5 1.5 0 0 1 5 18V11.5Z" fill="#fff"/>
  <path d="M18 13h4.2a1 1 0 0 1 .83.45L25.6 17.3a1 1 0 0 1 .17.55V19.5H18V13Z" fill="#fff"/>
  <circle cx="10" cy="21" r="2.3" fill="#fff" stroke="#2563eb" stroke-width="1.4"/>
  <circle cx="21.5" cy="21" r="2.3" fill="#fff" stroke="#2563eb" stroke-width="1.4"/>
</svg>
